<svg xmlns="http://www.w3.org/2000/svg" xmlns:xlink="http://www.w3.org/1999/xlink" width="588.763" height="440.378" viewBox="0 0 588.763 440.378">
  <defs>
    <linearGradient id="linear-gradient" x1="0.5" x2="0.5" y2="1" gradientUnits="objectBoundingBox">
      <stop offset="0" stop-color="#05aff2"/>
      <stop offset="0.59" stop-color="#00e0fe"/>
      <stop offset="1" stop-color="#63edf8"/>
    </linearGradient>
    <linearGradient id="linear-gradient-2" y1="0.5" x2="1" y2="0.5" gradientUnits="objectBoundingBox">
      <stop offset="0" stop-color="#dae3fe"/>
      <stop offset="1" stop-color="#e9effd"/>
    </linearGradient>
    <linearGradient id="linear-gradient-3" x1="0.785" y1="0.012" x2="-0.008" y2="2.477" xlink:href="#linear-gradient-2"/>
  </defs>
  <g id="virtual-classroom-banner" transform="translate(-998 -170.619)">
    <path id="Union_10" data-name="Union 10" d="M-10508.6,11244.389c-9.319,7.459-22.12,7.315-22.12,7.315s-25.05,2.925-28.913-13.065-8.054-24.883-8.054-24.883-10.294-15.309-30.93-6.59-29.686-12.757-31.377-19.5c-.786-3.142,17.788-5.707,24.349-16.832,4.561-7.732,2.185-17.358,3.086-23.254q-2.952-6.116-5.526-12.449a25.014,25.014,0,0,0-9.89-6.208c-6.125-2.019-11.456-.98-15.751-.146a54.074,54.074,0,0,0-12.6,4.353c-9.474,4.225-9.952,6.391-15.076,7.205-1.451.229-8.772,1.392-14.556-3.227-5.312-4.239-9.01-13.11-5.025-19.951,2.91-5,9.754-8.62,15.6-6.454.476.176,4.661,1.855,6.23,5.7.729,1.8.594,3.352,1.875,4.276,1.462,1.063,3.586.447,4.576.15,10.056-3.023,14.1-5.4,14.1-5.4,8.331-4.935,12.782-7.059,16.575-8.255,1.27-.4,2.757-.862,4.485-1.247a212.619,212.619,0,0,1-4.649-25.644,215.158,215.158,0,0,1-1.5-25.421c-7.466,1.8-18.243,2.511-23.562-6.146-8.614-14.016-15.351-21.176-15.351-21.176s-14.521-11.377-31.45,3.292-32.177-2.961-35.867-8.85c-1.72-2.743-9.259-16.227-6.456-28.837s8.8-16,15.975-20.661c13.438-8.727,28.786-5.467,44.521,14.245s45.281,8.4,45.281,8.4a32.3,32.3,0,0,1,15.611-.777,212.545,212.545,0,0,1,19.736-45.983c-.523-.067-1.05-.142-1.578-.229-10.1-1.624-13.249-5.238-14.4-7.011-2.429-3.739-3.738-9.621-1.2-13.685,2.118-3.391,5.235-2.817,8.722-5.356,6.835-4.988,9.855-18.139,4.983-27.095-5.99-11.007-21.553-11.338-26.736-11.448a27.11,27.11,0,0,0-7.135.716,26.1,26.1,0,0,1-8.374.642c-5.308-.342-14.977-.964-21.86-8.2-4.813-5.062-6.012-10.989-6.829-15.03-.826-4.087-2.215-10.95,1.14-18.481a25.7,25.7,0,0,1,10.9-11.982c7.927-4.341,19.069-4.646,26.772,1.332,6.729,5.221,8.247,13.221,8.736,15.78,1.759,9.273-2.554,11.587-.309,17.491,3.905,10.274,20.506,12.59,25.983,13.354,9.112,1.271,14.2-.771,15.509-1.357,3.8-1.69,4.395-3.277,7.812-5.276a28.214,28.214,0,0,1,22.8-2,28.1,28.1,0,0,1,14.405,11.691,212.7,212.7,0,0,1,125.728-40.888c117.924,0,213.516,95.595,213.516,213.517s-95.592,213.519-213.516,213.519A212.612,212.612,0,0,1-10508.6,11244.389Z" transform="translate(11735 -10657.381)" fill="url(#linear-gradient)"/>
    <g id="Group_7077" data-name="Group 7077" transform="translate(964.172 178.839)">
      <path id="Path_28608" data-name="Path 28608" d="M329.953,1282.348l-43.142,39.843a3.159,3.159,0,0,0,2.143,5.479l424.616.009a2.536,2.536,0,0,0,1.657-4.456l-45.271-39.08Z" transform="translate(-93.52 -934.746)" fill="#eee"/>
      <g id="Group_6999" data-name="Group 6999" transform="translate(176.119 274.496)">
        <g id="Group_6996" data-name="Group 6996" transform="translate(10.956)">
          <g id="Group_6995" data-name="Group 6995">
            <path id="Path_28424" data-name="Path 28424" d="M272.429,1008.681h71.818V997.666H272.429C273.966,997.666,273.966,1008.681,272.429,1008.681Z" transform="translate(-270.239 -995.175)" fill="#55d7ff"/>
            <path id="Path_28425" data-name="Path 28425" d="M336.695,997.335v-5.041a3.194,3.194,0,0,0-3.17-3.218H265.179a2.261,2.261,0,0,1-2.493-1.91.687.687,0,0,1,.757-.58h74.7a5.087,5.087,0,0,1,4.433,4.61v7.04c0,2.4-2.64,4.346-4.255,4.346H263.836a1.043,1.043,0,0,1-1.15-.881,1.9,1.9,0,0,1,2.1-1.609h69.193A2.736,2.736,0,0,0,336.695,997.335Z" transform="translate(-262.686 -986.586)" fill="#05aff2"/>
          </g>
          <path id="Path_28426" data-name="Path 28426" d="M350.092,1007.194h-67.34a.215.215,0,1,1,0-.429h67.34a.215.215,0,1,1,0,.429Z" transform="translate(-278.076 -1002.229)" fill="#63edf8"/>
          <path id="Path_28427" data-name="Path 28427" d="M350.092,1014.467h-67.34a.215.215,0,1,1,0-.429h67.34a.215.215,0,1,1,0,.429Z" transform="translate(-278.076 -1007.867)" fill="#63edf8"/>
          <path id="Path_28428" data-name="Path 28428" d="M350.092,1021.741h-67.34a.215.215,0,1,1,0-.429h67.34a.215.215,0,1,1,0,.429Z" transform="translate(-278.076 -1013.506)" fill="#63edf8"/>
          <path id="Path_28429" data-name="Path 28429" d="M350.092,1029.014h-67.34a.215.215,0,0,1,0-.429h67.34a.215.215,0,0,1,0,.429Z" transform="translate(-278.076 -1019.144)" fill="#63edf8"/>
          <path id="Path_28430" data-name="Path 28430" d="M350.092,1036.288h-67.34a.215.215,0,1,1,0-.429h67.34a.215.215,0,1,1,0,.429Z" transform="translate(-278.076 -1024.783)" fill="#63edf8"/>
        </g>
        <g id="Group_6997" data-name="Group 6997" transform="translate(1.924 37.326)">
          <rect id="Rectangle_2421" data-name="Rectangle 2421" width="90.756" height="17.145" rx="8.573" fill="#55d7ff"/>
          <rect id="Rectangle_2422" data-name="Rectangle 2422" width="6.995" height="13.204" rx="3.498" transform="translate(10.257 1.97)" fill="#fff" opacity="0.3"/>
          <rect id="Rectangle_2423" data-name="Rectangle 2423" width="5.028" height="13.204" rx="2.514" transform="translate(20.113 1.97)" fill="#fff" opacity="0.3"/>
        </g>
        <g id="Group_6998" data-name="Group 6998" transform="translate(0 15.561)">
          <path id="Path_28431" data-name="Path 28431" d="M327.884,1061.858v3.71a2.015,2.015,0,0,1-1.016,1.659l-.638.411c-.524.338-.414.966.209,1.192h0c.411.149.488.562.146.789l-.8.534a.745.745,0,0,0,0,1.314l.577.386a.694.694,0,0,1-.03,1.237l-.62.385a.653.653,0,0,0-.163,1.073l.341.335a1.171,1.171,0,0,1,.377.834v5.858H242.185v-20.07Z" transform="translate(-235.838 -1060.226)" fill="#55d7ff"/>
          <path id="Path_28432" data-name="Path 28432" d="M254.056,1080.561h79.839c.174,0,.315-.1.315-.235s-.141-.235-.315-.235H254.056c-.174,0-.315.1-.315.235S253.882,1080.561,254.056,1080.561Z" transform="translate(-244.796 -1074.634)" fill="#63edf8"/>
          <path id="Path_28433" data-name="Path 28433" d="M254.056,1096.1h77.949c.174,0,.315-.105.315-.235s-.141-.235-.315-.235H254.056c-.174,0-.315.1-.315.235S253.882,1096.1,254.056,1096.1Z" transform="translate(-244.796 -1086.683)" fill="#63edf8"/>
          <path id="Path_28434" data-name="Path 28434" d="M254.056,1107.544h76.98c.174,0,.315-.105.315-.235s-.141-.235-.315-.235h-76.98c-.174,0-.315.1-.315.235S253.882,1107.544,254.056,1107.544Z" transform="translate(-244.796 -1095.551)" fill="#63edf8"/>
          <path id="Path_28435" data-name="Path 28435" d="M218.771,1055.813h89.062c.679,0,1.284.37,1.349.874.074.578-.533,1.065-1.293,1.065H225.306a3,3,0,0,0-3,1.816,28.237,28.237,0,0,0,.024,14.777,3.239,3.239,0,0,0,3.291,2.038H306.2c.678,0,1.284.37,1.349.874.074.578-.533,1.065-1.293,1.065h-86.9c-2.078,0-3.867-1.107-4.237-2.632a34.019,34.019,0,0,1,0-17.728,3.605,3.605,0,0,1,3.6-2.149Z" transform="translate(-213.949 -1055.813)" fill="#05aff2"/>
        </g>
      </g>
      <g id="Group_7016" data-name="Group 7016" transform="translate(219.882 101.848)">
        <path id="Path_28442" data-name="Path 28442" d="M426.175,224.2l334.575-5.654c13.47-.228,24.282,11.326,23.482,25.092L772.715,441.679a20.4,20.4,0,0,1-19.955,19.434l-321.607,3.181a14.834,14.834,0,0,1-14.809-14.452l-7.695-206.7A18.076,18.076,0,0,1,426.175,224.2Z" transform="translate(-408.635 -218.539)" fill="#eaeaea"/>
        <path id="Path_28443" data-name="Path 28443" d="M433.5,265.617a17.369,17.369,0,0,1,17.069-18.027l325.842-5.379a22.536,22.536,0,0,1,22.868,23.872L788.064,454.5a19.659,19.659,0,0,1-19.434,18.49l-313.213,3.026a14.3,14.3,0,0,1-14.423-13.75Z" transform="translate(-427.901 -236.887)" fill="#05aff2"/>
        <path id="Path_28444" data-name="Path 28444" d="M464.237,294.533a16.539,16.539,0,0,1,16.254-17.166l310.279-5.122a21.46,21.46,0,0,1,21.776,22.732L801.866,474.4A18.72,18.72,0,0,1,783.36,492l-298.253,2.882a13.612,13.612,0,0,1-13.734-13.093Z" transform="translate(-451.729 -260.17)" fill="#acf9ff"/>
        <g id="Group_7015" data-name="Group 7015" transform="translate(29.795 30.141)">
          <g id="Group_7002" data-name="Group 7002">
            <path id="Path_28445" data-name="Path 28445" d="M849.6,528.492H548.614a7.578,7.578,0,0,1-7.433-7.867V366.05a7.63,7.63,0,0,1,7.385-7.826l0,.215,0-.215,300.948-5.6a7.4,7.4,0,0,1,5.432,2.244,7.991,7.991,0,0,1,2.283,5.583V520.625A7.758,7.758,0,0,1,849.6,528.492Zm.049-175.439h-.13l-300.948,5.6a7.2,7.2,0,0,0-6.963,7.4V520.625a7.153,7.153,0,0,0,7,7.437H849.6a7.328,7.328,0,0,0,7.2-7.437V360.452a7.559,7.559,0,0,0-2.159-5.281A6.978,6.978,0,0,0,849.652,353.053Z" transform="translate(-541.181 -352.624)" fill="#63edf8"/>
          </g>
          <path id="Rectangle_2424" data-name="Rectangle 2424" d="M25.75,0H162.075a25.75,25.75,0,0,1,25.75,25.75v65a25.75,25.75,0,0,1-25.75,25.75H25.751A25.751,25.751,0,0,1,0,90.749v-65A25.75,25.75,0,0,1,25.75,0Z" transform="translate(12.697 27.057)" fill="#05aff2"/>
          <g id="Group_7006" data-name="Group 7006" transform="translate(213.384 26.843)">
            <g id="Group_7003" data-name="Group 7003">
              <path id="Path_28446" data-name="Path 28446" d="M1561.388,510.506h-63.834a7.052,7.052,0,0,1-7.108-7.148v-24.29a7,7,0,0,1,7.108-7.033h63.834c4.233,0,7.946,3.286,7.946,7.033v24.29C1569.334,507.166,1565.621,510.506,1561.388,510.506Zm-63.834-38.041a6.5,6.5,0,0,0-6.679,6.6v24.29a6.627,6.627,0,0,0,6.679,6.718h63.834c3.934,0,7.517-3.2,7.517-6.718v-24.29c0-3.518-3.512-6.6-7.517-6.6Z" transform="translate(-1490.446 -472.036)" fill="#63edf8"/>
            </g>
            <g id="Group_7004" data-name="Group 7004" transform="translate(0 48.739)">
              <path id="Path_28447" data-name="Path 28447" d="M1561.388,727.329h-63.834a6.866,6.866,0,0,1-7.108-6.927v-24.29a7.116,7.116,0,0,1,7.108-7.253h63.834c4.159,0,7.946,3.457,7.946,7.253V720.4C1569.334,724.157,1565.7,727.329,1561.388,727.329Zm-63.834-38.041a6.691,6.691,0,0,0-6.679,6.823V720.4a6.446,6.446,0,0,0,6.679,6.5h63.834c4,0,7.517-3.036,7.517-6.5v-24.29c0-3.571-3.583-6.823-7.517-6.823Z" transform="translate(-1490.446 -688.859)" fill="#63edf8"/>
            </g>
            <g id="Group_7005" data-name="Group 7005" transform="translate(0 97.479)">
              <path id="Path_28448" data-name="Path 28448" d="M1561.388,944.153h-63.834c-4.119,0-7.108-2.821-7.108-6.708v-24.29c0-3.594,2.718-7.472,7.108-7.472h63.834c4.085,0,7.946,3.631,7.946,7.472v24.29C1569.334,941.144,1565.77,944.153,1561.388,944.153Zm-63.834-38.041c-4.125,0-6.679,3.656-6.679,7.043v24.29c0,3.638,2.809,6.278,6.679,6.278h63.834c4.074,0,7.517-2.875,7.517-6.278v-24.29c0-3.62-3.653-7.043-7.517-7.043Z" transform="translate(-1490.446 -905.683)" fill="#63edf8"/>
            </g>
          </g>
          <path id="Path_28449" data-name="Path 28449" d="M857.014,424.87H541.4a.215.215,0,0,1,0-.43H857.014a.215.215,0,0,1,0,.43Z" transform="translate(-541.181 -408.297)" fill="#63edf8"/>
          <path id="Path_28450" data-name="Path 28450" d="M1763.894,381.169h-.515a3.23,3.23,0,0,1-3.227-3.227v-.514a3.23,3.23,0,0,1,3.227-3.227h.515a3.23,3.23,0,0,1,3.227,3.227v.514A3.23,3.23,0,0,1,1763.894,381.169Zm-.515-6.538a2.8,2.8,0,0,0-2.8,2.8v.514a2.8,2.8,0,0,0,2.8,2.8h.515a2.8,2.8,0,0,0,2.8-2.8v-.514a2.8,2.8,0,0,0-2.8-2.8Z" transform="translate(-1486.142 -369.351)" fill="#fff"/>
          <path id="Path_28451" data-name="Path 28451" d="M1824.711,381.169h-.514a3.23,3.23,0,0,1-3.227-3.227v-.514a3.23,3.23,0,0,1,3.227-3.227h.514a3.23,3.23,0,0,1,3.227,3.227v.514A3.23,3.23,0,0,1,1824.711,381.169Zm-.514-6.538a2.8,2.8,0,0,0-2.8,2.8v.514a2.8,2.8,0,0,0,2.8,2.8h.514a2.8,2.8,0,0,0,2.8-2.8v-.514a2.8,2.8,0,0,0-2.8-2.8Z" transform="translate(-1533.288 -369.351)" fill="#fff"/>
          <path id="Path_28452" data-name="Path 28452" d="M1888.171,381.169h-.514a3.23,3.23,0,0,1-3.227-3.227v-.514a3.23,3.23,0,0,1,3.227-3.227h.514a3.231,3.231,0,0,1,3.227,3.227v.514A3.23,3.23,0,0,1,1888.171,381.169Zm-.514-6.538a2.8,2.8,0,0,0-2.8,2.8v.514a2.8,2.8,0,0,0,2.8,2.8h.514a2.8,2.8,0,0,0,2.8-2.8v-.514a2.8,2.8,0,0,0-2.8-2.8Z" transform="translate(-1582.483 -369.351)" fill="#fff"/>
          <g id="Group_7007" data-name="Group 7007" transform="translate(121.58 46.32)" opacity="0.78">
            <path id="Path_28453" data-name="Path 28453" d="M1083.019,628.944a.973.973,0,0,0,.671-.267l13.241-12.542a6.149,6.149,0,0,1,4.245-1.691h45.068a.975.975,0,0,0,0-1.951h-45.068a8.09,8.09,0,0,0-5.586,2.226l-13.241,12.542a.975.975,0,0,0,.671,1.683Z" transform="translate(-1082.043 -600.397)" fill="#63edf8"/>
            <path id="Path_28454" data-name="Path 28454" d="M1194.576,587.537h38.148a.975.975,0,0,0,0-1.951h-38.148a.975.975,0,0,0,0,1.951Z" transform="translate(-1168.524 -579.539)" fill="#63edf8"/>
            <path id="Path_28455" data-name="Path 28455" d="M1222.188,560.633h31.941a.975.975,0,0,0,0-1.951h-31.941a.975.975,0,0,0,0,1.951Z" transform="translate(-1189.929 -558.682)" fill="#63edf8"/>
          </g>
          <g id="Group_7008" data-name="Group 7008" transform="translate(27.123 94.035)" opacity="0.78">
            <path id="Path_28456" data-name="Path 28456" d="M731.6,770.95a1.056,1.056,0,0,0-.729.29l-14.388,13.629a6.682,6.682,0,0,1-4.613,1.838H662.9a1.06,1.06,0,1,0,0,2.119h48.972a8.794,8.794,0,0,0,6.071-2.419l14.388-13.629a1.06,1.06,0,0,0-.729-1.829Z" transform="translate(-661.842 -770.95)" fill="#63edf8"/>
            <path id="Path_28457" data-name="Path 28457" d="M704.354,870.283H662.9a1.06,1.06,0,1,0,0,2.119h41.453a1.06,1.06,0,1,0,0-2.119Z" transform="translate(-661.842 -847.954)" fill="#63edf8"/>
            <path id="Path_28458" data-name="Path 28458" d="M697.609,899.519H662.9a1.06,1.06,0,0,0,0,2.12h34.708a1.06,1.06,0,0,0,0-2.12Z" transform="translate(-661.842 -870.618)" fill="#63edf8"/>
          </g>
          <g id="Group_7013" data-name="Group 7013" transform="translate(15.14 32.215)">
            <path id="Path_28459" data-name="Path 28459" d="M610.111,532.092l87.107-.291a1.693,1.693,0,0,1,1.6,1.793l-.163,23.947a1.684,1.684,0,0,1-1.638,1.765l-86.687-1.289a1.7,1.7,0,0,1-1.543-1.756l-.256-22.367A1.7,1.7,0,0,1,610.111,532.092Z" transform="translate(-608.531 -523.739)" fill="#91b3fa"/>
            <path id="Path_28460" data-name="Path 28460" d="M701.673,563l-86.7-1.289a.264.264,0,0,1-.247-.269l-.257-22.367a.278.278,0,0,1,.069-.19.242.242,0,0,1,.184-.086l87.107-.291a.243.243,0,0,1,.186.085.279.279,0,0,1,.07.19l-.163,23.947A.264.264,0,0,1,701.673,563Zm-86.691-1.5,86.693,1.289c.017,0,.037-.024.038-.057l.163-23.946a.065.065,0,0,0-.016-.046.029.029,0,0,0-.025-.012l-87.107.291a.028.028,0,0,0-.024.013.063.063,0,0,0-.016.046l.256,22.367c0,.033.02.056.038.057Z" transform="translate(-613.137 -528.936)" fill="url(#linear-gradient-2)"/>
            <path id="Path_28461" data-name="Path 28461" d="M638.494,555.739h0c0,.772.372,1.4.83,1.4h75.158c.458,0,.83-.626.83-1.4h0c0-.772-.372-1.4-.83-1.4H639.324C638.866,554.341,638.494,554.967,638.494,555.739Z" transform="translate(-631.759 -541.212)" fill="#63edf8"/>
            <path id="Path_28462" data-name="Path 28462" d="M641.267,575.633h37.718c.2,0,.361.375.361.839h0c0,.463-.161.839-.361.839H641.267c-.2,0-.361-.375-.361-.839h0C640.906,576.008,641.067,575.633,641.267,575.633Z" transform="translate(-633.629 -557.718)" fill="#63edf8"/>
            <path id="Path_28463" data-name="Path 28463" d="M640.906,590.667h0c0,.462.161.837.36.837h37.72c.2,0,.36-.375.36-.837v-.517c0-.47-.167-.848-.369-.837l-37.72.517C641.062,589.842,640.906,590.213,640.906,590.667Z" transform="translate(-633.629 -568.323)" fill="#63edf8"/>
            <path id="Path_28464" data-name="Path 28464" d="M641.267,605.223h37.718c.2,0,.361.375.361.839h0c0,.463-.161.839-.361.839H641.267c-.2,0-.361-.375-.361-.839h0C640.906,605.6,641.067,605.223,641.267,605.223Z" transform="translate(-633.629 -580.656)" fill="#63edf8"/>
            <path id="Path_28465" data-name="Path 28465" d="M640.906,620.257h0c0,.462.161.837.36.837h37.72c.2,0,.36-.375.36-.837v-.517c0-.47-.167-.848-.369-.837l-37.72.517C641.062,619.432,640.906,619.8,640.906,620.257Z" transform="translate(-633.629 -591.261)" fill="#63edf8"/>
            <g id="Group_7012" data-name="Group 7012" transform="translate(51.976)">
              <g id="Group_7009" data-name="Group 7009">
                <path id="Path_28466" data-name="Path 28466" d="M856.544,506.538l-.011-6.294H850.8l.011,5.915a14.778,14.778,0,0,1-2.909,8.8l-7.547,10.175a3.084,3.084,0,0,0-.607,1.838v0a3.085,3.085,0,0,0,3.085,3.085h21.749a3.085,3.085,0,0,0,3.085-3.085h0a3.086,3.086,0,0,0-.612-1.844l-7.82-10.485A13.568,13.568,0,0,1,856.544,506.538Z" transform="translate(-839.751 -499.275)" fill="url(#linear-gradient-3)"/>
                <path id="Path_28467" data-name="Path 28467" d="M845.5,531.953a2.317,2.317,0,0,1-1.858-3.7l7.548-10.175a15.653,15.653,0,0,0,3.061-9.263l-.009-5.143h4.187l.009,5.524a14.433,14.433,0,0,0,2.845,8.572l7.82,10.485a2.314,2.314,0,0,1-1.854,3.7Z" transform="translate(-842.411 -501.935)" fill="#fff" opacity="0.5"/>
                <path id="Path_28468" data-name="Path 28468" d="M891.207,498.035h-6.062a.887.887,0,0,1-.887-.887h0a.887.887,0,0,1,.839-.886l6.062-.326a.887.887,0,0,1,.934.886v.326A.887.887,0,0,1,891.207,498.035Z" transform="translate(-874.253 -495.935)" fill="url(#linear-gradient-2)"/>
                <path id="Path_28469" data-name="Path 28469" d="M843.637,596.881a2.317,2.317,0,0,0,1.858,3.7h21.749a2.314,2.314,0,0,0,1.854-3.7l-3.492-4.682h-18.5Z" transform="translate(-842.411 -570.559)" fill="#05aff2"/>
              </g>
              <g id="Group_7010" data-name="Group 7010" transform="translate(27.585 11.646)">
                <path id="Path_28470" data-name="Path 28470" d="M968.145,571.457h0a2.184,2.184,0,0,1-2.184-2.184V553.641h4.846l-.478,15.632A2.184,2.184,0,0,1,968.145,571.457Z" transform="translate(-965.176 -552.315)" fill="url(#linear-gradient-2)"/>
                <path id="Path_28471" data-name="Path 28471" d="M969.91,570.945a1.674,1.674,0,0,1-1.672-1.672V553.641h3.807l-.462,15.624v.008A1.674,1.674,0,0,1,969.91,570.945Z" transform="translate(-966.941 -552.315)" fill="#fff" opacity="0.49"/>
                <path id="Path_28472" data-name="Path 28472" d="M968.1,549.445h-4.911a.718.718,0,0,1-.718-.719h0a.718.718,0,0,1,.68-.717l4.911-.264a.719.719,0,0,1,.757.718v.264A.719.719,0,0,1,968.1,549.445Z" transform="translate(-962.468 -547.744)" fill="url(#linear-gradient-2)"/>
                <path id="Path_28473" data-name="Path 28473" d="M968.238,585.374v8.5a1.672,1.672,0,1,0,3.345,0v-.008l.251-8.49Z" transform="translate(-966.941 -576.915)" fill="#05aff2"/>
              </g>
              <g id="Group_7011" data-name="Group 7011" transform="translate(20.926 11.802)">
                <path id="Path_28474" data-name="Path 28474" d="M938.518,572.15h0a2.184,2.184,0,0,1-2.184-2.184V554.334h4.846l-.478,15.632A2.184,2.184,0,0,1,938.518,572.15Z" transform="translate(-935.549 -553.008)" fill="url(#linear-gradient-2)"/>
                <path id="Path_28475" data-name="Path 28475" d="M940.283,571.638a1.674,1.674,0,0,1-1.672-1.672V554.334h3.807l-.462,15.624v.008A1.674,1.674,0,0,1,940.283,571.638Z" transform="translate(-937.314 -553.008)" fill="#fff" opacity="0.49"/>
                <path id="Path_28476" data-name="Path 28476" d="M938.472,550.138H933.56a.719.719,0,0,1-.719-.718h0a.718.718,0,0,1,.68-.718l4.911-.264a.718.718,0,0,1,.757.718v.264A.718.718,0,0,1,938.472,550.138Z" transform="translate(-932.842 -548.437)" fill="url(#linear-gradient-2)"/>
                <path id="Path_28477" data-name="Path 28477" d="M938.611,586.067v8.5a1.672,1.672,0,0,0,3.345,0v-.008l.251-8.49Z" transform="translate(-937.314 -577.608)" fill="#05aff2"/>
              </g>
            </g>
          </g>
          <g id="Group_7014" data-name="Group 7014" transform="translate(87.518 69.888)">
            <path id="Path_28478" data-name="Path 28478" d="M947.71,697.9a17.186,17.186,0,1,1,17.177-17.2v.019A17.2,17.2,0,0,1,947.71,697.9Zm0-33.943a16.757,16.757,0,1,0,16.747,16.766V680.7A16.766,16.766,0,0,0,947.71,663.956Z" transform="translate(-930.515 -663.527)" fill="url(#linear-gradient-2)"/>
            <path id="Path_28479" data-name="Path 28479" d="M980.974,717.606a.905.905,0,0,1-.9-.881l-.413-15.439a1.458,1.458,0,0,1,2.075-1.36l15.251,7.133a1.458,1.458,0,0,1,.068,2.607l-13.462,7.177a.905.905,0,0,1-.852-1.6l12.84-6.845-14.095-6.592.4,14.868a.905.905,0,0,1-.881.929Z" transform="translate(-968.609 -691.637)" fill="url(#linear-gradient-2)"/>
          </g>
        </g>
      </g>
      <path id="Path_28480" data-name="Path 28480" d="M329.953,1282.348l-43.142,39.843a3.159,3.159,0,0,0,2.143,5.479l424.616.009a2.536,2.536,0,0,0,1.657-4.456l-45.271-39.08Z" transform="translate(-93.521 -941.368)" fill="#05aff2"/>
      <g id="Group_7025" data-name="Group 7025" transform="translate(359.236 68.01)">
        <g id="Group_7024" data-name="Group 7024" transform="translate(0)">
          <g id="Group_7020" data-name="Group 7020" transform="translate(15.55)">
            <ellipse id="Ellipse_617" data-name="Ellipse 617" cx="57.613" cy="63.623" rx="57.613" ry="63.623" transform="translate(13.217 108.614) rotate(-70.495)" fill="#eb9623"/>
            <path id="Path_28496" data-name="Path 28496" d="M1124.038,296.719s-23.1,5-26.2,27.883,70.506,26.97,110.333,7.152,81.16-41.312,80.49-66.655-43.533-9.931-43.533-9.931,50.557,24.675-48.231,59.911C1096.222,350.988,1124.038,296.719,1124.038,296.719Z" transform="translate(-1097.743 -209.499)" fill="#fff"/>
            <path id="Path_28497" data-name="Path 28497" d="M1281.458,249.4a2.01,2.01,0,0,1-3.944.49c-3.384-12.489-4.838-32.517,11.52-50.437,16.073-17.608,38.5-14.985,53.4-10.348a2.011,2.011,0,0,1-.778,3.924c-13.3-1.177-31.38-.354-41.332,10.423A70.649,70.649,0,0,0,1281.458,249.4Z" transform="translate(-1235.427 -159.22)" fill="#fff" opacity="0.5"/>
            <path id="Path_28498" data-name="Path 28498" d="M1149.83,512.15c1.377-2.642-39.4,41.042,75.7,23.361C1225.53,535.511,1132.682,545.035,1149.83,512.15Z" transform="translate(-1133.535 -412.223)" fill="#05aff2"/>
            <path id="Path_28499" data-name="Path 28499" d="M1761.047,285.681s60.18-10.659-13.549,45.912C1747.5,331.593,1798.5,285.558,1761.047,285.681Z" transform="translate(-1601.44 -236.132)" fill="#05aff2"/>
          </g>
          <circle id="Ellipse_618" data-name="Ellipse 618" cx="4.976" cy="4.976" r="4.976" transform="translate(103.935 167.04)" fill="#05aff2"/>
          <g id="Group_7021" data-name="Group 7021" transform="translate(115.499 148.023)">
            <circle id="Ellipse_619" data-name="Ellipse 619" cx="13.975" cy="13.975" r="13.975" transform="translate(0 8.512) rotate(-17.73)" fill="#63edf8"/>
            <path id="Path_28500" data-name="Path 28500" d="M1582.3,759.14c-1.754,2-6.413,8.931-1.028,6.633S1584.6,756.521,1582.3,759.14Z" transform="translate(-1570.574 -751.354)" fill="#91b3fa"/>
            <path id="Path_28501" data-name="Path 28501" d="M1577.975,809.08c-.717,1.469-.683,6.471,3.187,7.47S1578.692,807.611,1577.975,809.08Z" transform="translate(-1569.695 -790.403)" fill="#91b3fa"/>
            <path id="Path_28502" data-name="Path 28502" d="M1598.121,791.469c-1.269,1.564-1.749,3.232,1.036,4.3S1599.391,789.905,1598.121,791.469Z" transform="translate(-1584.808 -776.687)" fill="#91b3fa"/>
            <path id="Path_28503" data-name="Path 28503" d="M1615.022,835.052c-2.262.709-4.155,3.545.089,3.883S1618.595,833.932,1615.022,835.052Z" transform="translate(-1596.801 -810.532)" fill="#91b3fa"/>
          </g>
          <g id="Group_7022" data-name="Group 7022" transform="translate(0 42.109)">
            <ellipse id="Ellipse_620" data-name="Ellipse 620" cx="17.262" cy="15.19" rx="17.262" ry="15.19" transform="translate(0 0.788) rotate(-1.308)" fill="#6c63ff"/>
            <path id="Path_28504" data-name="Path 28504" d="M1050.558,271.466c-4.175,2.961-9.642,6.4-5.348,13.479s5.953-6.009,8.71-9.117S1053.91,269.089,1050.558,271.466Z" transform="translate(-1040.256 -267.247)" fill="#55d7ff"/>
            <path id="Path_28505" data-name="Path 28505" d="M1078.639,342.767c-3.015,1.318-3.2,2.844.133,5.814S1081.654,341.449,1078.639,342.767Z" transform="translate(-1065.59 -323.021)" fill="#55d7ff"/>
            <path id="Path_28506" data-name="Path 28506" d="M1115.658,349.162c-5.437,2-5.583,4.831-1.224,5.207S1121.951,346.843,1115.658,349.162Z" transform="translate(-1092.745 -327.741)" fill="#55d7ff"/>
          </g>
          <g id="Group_7023" data-name="Group 7023" transform="translate(35.478 15.572)">
            <path id="Path_28507" data-name="Path 28507" d="M1205.312,146.526a9.459,9.459,0,1,1-9.673-9.241A9.459,9.459,0,0,1,1205.312,146.526Z" transform="translate(-1186.396 -137.283)" fill="#63edf8"/>
            <path id="Path_28508" data-name="Path 28508" d="M1220.609,143.619c-3.4,3.994-1.9-.312-4.6-1.99-3.079-1.917-7.262,7.231-5.7-.527a19.442,19.442,0,0,0,.418-3.562,9.4,9.4,0,0,0-3.259.966c.989,1.034,1.435,2.959.434,6.457-2.82,9.853,1.076,9.546,2.593,4.291s6.205-6.937,5.159-1.258c-.934,5.07,2.09,5.091,5.556-.844,0-.141,0-.283,0-.426A9.442,9.442,0,0,0,1220.609,143.619Z" transform="translate(-1202.293 -137.483)" fill="#fff" opacity="0.5"/>
          </g>
        </g>
      </g>
    </g>
    <g id="Group_7078" data-name="Group 7078" transform="translate(-145.275 -2793.128)">
      <g id="Group_5099" data-name="Group 5099" transform="translate(1233 3092)">
        <ellipse id="Ellipse_155" data-name="Ellipse 155" cx="86.487" cy="10.853" rx="86.487" ry="10.853" transform="translate(93.956 242.514)" opacity="0.08" fill="url(#linear-gradient)"/>
        <path id="Path_747" data-name="Path 747" d="M553.857,348.357c-6.907-11.671-20.572-12.215-20.572-12.215s-13.316-1.7-21.858,16.072c-7.962,16.568-18.95,32.564-1.769,36.442l3.1-9.659,1.922,10.378a67.226,67.226,0,0,0,7.351.126c18.4-.594,35.923.174,35.359-6.429C556.643,374.3,560.5,359.586,553.857,348.357Z" transform="translate(-350.655 -243.147)" fill="#2f2e41"/>
        <path id="Path_748" data-name="Path 748" d="M519.3,667.775a37.24,37.24,0,0,1-.881,4.484c-.432,1.437-1.1,2.766-1.495,4.218-1.26,4.627.487,9.787,3.276,13.359a18.13,18.13,0,0,0,8.99,6.311,31.264,31.264,0,0,0,7.725.96c7.18.288,14.545.545,21.349-2.183a34.63,34.63,0,0,0,6.2-3.331,4.86,4.86,0,0,0,1.609-1.5,6.027,6.027,0,0,0,.581-3.074c-.015-3.6-.632-7.179-.486-10.774a50.416,50.416,0,0,0,.241-5.966c-.44-4.619-3.287-8.413-7.114-9.48a16.382,16.382,0,0,0-5.9,0,127.36,127.36,0,0,1-15.347.811c-5.235-.04-10.439-.984-15.648-1.083-1.541-.029-1.51.532-2,2.295A49.334,49.334,0,0,0,519.3,667.775Z" transform="translate(-361.108 -454.256)" fill="#d6d6dc"/>
        <path id="Path_749" data-name="Path 749" d="M556.883,441.287a9.14,9.14,0,0,1-1.315,3.766c-.911,1.246-2.4,1.957-3.376,3.149-1.475,1.794-1.56,4.319-1.566,6.642-.006,2.14.038,4.422,1.231,6.2a10.832,10.832,0,0,0,3.1,2.737c4.475,3.016,9.31,6.085,14.705,6.185a7.82,7.82,0,0,0,6.1-2.22,9.165,9.165,0,0,0,1.478-2.636,35.01,35.01,0,0,0,2.478-10.657,12.516,12.516,0,0,0-.472-5.12c-.655-1.827-1.981-3.331-2.856-5.063a11.273,11.273,0,0,1-1.085-6.67.72.72,0,0,0-.038-.483.7.7,0,0,0-.58-.235l-10.7-.77a23.273,23.273,0,0,1-2.97-.34c-.577-.117-2.1-.936-2.65-.718C557.359,435.453,557.092,440.2,556.883,441.287Z" transform="translate(-383.739 -306.778)" fill="#ffb8b8"/>
        <path id="Path_750" data-name="Path 750" d="M556.883,441.287a9.14,9.14,0,0,1-1.315,3.766c-.911,1.246-2.4,1.957-3.376,3.149-1.475,1.794-1.56,4.319-1.566,6.642-.006,2.14.038,4.422,1.231,6.2a10.832,10.832,0,0,0,3.1,2.737c4.475,3.016,9.31,6.085,14.705,6.185a7.82,7.82,0,0,0,6.1-2.22,9.165,9.165,0,0,0,1.478-2.636,35.01,35.01,0,0,0,2.478-10.657,12.516,12.516,0,0,0-.472-5.12c-.655-1.827-1.981-3.331-2.856-5.063a11.273,11.273,0,0,1-1.085-6.67.72.72,0,0,0-.038-.483.7.7,0,0,0-.58-.235l-10.7-.77a23.273,23.273,0,0,1-2.97-.34c-.577-.117-2.1-.936-2.65-.718C557.359,435.453,557.092,440.2,556.883,441.287Z" transform="translate(-383.739 -306.778)" opacity="0.1"/>
        <ellipse id="Ellipse_160" data-name="Ellipse 160" cx="15.694" cy="15.694" rx="15.694" ry="15.694" transform="translate(167.842 102.267)" fill="#ffb8b8"/>
        <path id="Path_751" data-name="Path 751" d="M564.644,495.468a9.626,9.626,0,0,0,2.757,2.2,8.662,8.662,0,0,0,3.444.656c2.829.08,5.9-.439,7.864-2.473,2.537-2.622,2.453-6.851,4.442-9.909a2.207,2.207,0,0,1,.641-.7,2.076,2.076,0,0,1,1.09-.251c2.511-.023,4.7,1.605,6.674,3.158a8.791,8.791,0,0,1,2.349,2.393,8.113,8.113,0,0,1,.792,2.426,106.572,106.572,0,0,1,1.612,14.545c.174,2.691.348,5.385.335,8.081-.043,8.884-2.108,17.62-4.161,26.264-.264,1.114-.627,2.359-1.639,2.892a4.046,4.046,0,0,1-1.431.349,175.112,175.112,0,0,1-17.7,1.473q-3.466.053-6.929-.168a3.727,3.727,0,0,1-1.167-.2,3.291,3.291,0,0,1-1.273-1.081c-3.2-4.036-3.392-9.616-3.371-14.768q.075-18.9,1.35-37.762a4.154,4.154,0,0,0-.663-3.116A39,39,0,0,0,564.644,495.468Z" transform="translate(-388.688 -336.788)" fill="#fefefe"/>
        <path id="Path_752" data-name="Path 752" d="M517.681,459.3c-.53.96-4.438,3.342-5.193,4.137-4.215,4.443-11.909,4.277-15.764,9.036a14.83,14.83,0,0,0-2.579,5.87c-.733,2.958-1.124,6.184.1,8.974,1.182,2.684,3.669,4.539,5.358,6.937,1.854,2.632,2.688,5.829,3.487,8.948a20.594,20.594,0,0,1,.955,7.03c-.261,2.69-1.563,5.154-2.332,7.745s-.9,5.678.876,7.715c1.306,1.5,3.354,2.089,5.312,2.423a61.031,61.031,0,0,0,7.571.659c2.238.1,4.7.118,6.425-1.317a6.46,6.46,0,0,0,2.024-4.735,30.55,30.55,0,0,0-.521-5.269c-.239-1.817-.33-3.649-.407-5.48q-.516-12.321-.141-24.658a20.987,20.987,0,0,0-.25-5.117,28.049,28.049,0,0,0-2.661-6.188,23.416,23.416,0,0,1-2.6-12.37C517.648,459.24,519.567,455.886,517.681,459.3Z" transform="translate(-347.234 -318.986)" fill="#6c63ff"/>
        <path id="Path_753" data-name="Path 753" d="M621.18,456.58c.807.83,3.551,1.1,4.578,1.638a16.041,16.041,0,0,0,3.009,1.042,39.07,39.07,0,0,1,10.572,4.852,6.415,6.415,0,0,1,1.768,1.527,7,7,0,0,1,.978,2.762,23.5,23.5,0,0,1-.842,15.431l-3.009,9.62c-2.246,7.181-4.506,14.432-5.138,21.93a51.593,51.593,0,0,0,.463,12.455,1.477,1.477,0,0,1-.152,1.206,1.189,1.189,0,0,1-.737.339c-1.452.227-2.858-.513-4.174-1.169a46.217,46.217,0,0,0-12.741-4.169,29.621,29.621,0,0,0,3.957-8.158,49.382,49.382,0,0,0,1.2-5.61l1.4-8.1a79.571,79.571,0,0,0,1.2-8.953,11.21,11.21,0,0,0-.195-3.372,16.349,16.349,0,0,0-1.278-3.041,25.988,25.988,0,0,1-2.482-15.521c.4-2.3,1.169-4.6.847-6.9-.309-2.219.012-3.943-.557-6.139C617.507,449.234,619.661,455.019,621.18,456.58Z" transform="translate(-425.364 -315.684)" fill="#6c63ff"/>
        <path id="Path_754" data-name="Path 754" d="M495.716,511.493c-1.052,2.182-2.81,4.042-3.408,6.389a13.96,13.96,0,0,0-.3,3.339,15.863,15.863,0,0,0,.5,5.021c.334,1.035.877,1.99,1.269,3a10.9,10.9,0,0,1,.714,4.452c-.106,2.1-.82,4.143-.876,6.247-.088,3.309,1.443,6.42,2.936,9.374a6.891,6.891,0,0,1,10.016-3.279,2.054,2.054,0,0,0,.451-1.5q.166-5.758.319-11.517c.162-5.938.316-11.954-1.05-17.735a16.731,16.731,0,0,0-3.335-7.234c-.926-1.066-4.071-3.873-5.591-2.679-.684.537-.524,2-.632,2.739A11.619,11.619,0,0,1,495.716,511.493Z" transform="translate(-346.837 -350.742)" fill="#6c63ff"/>
        <path id="Path_755" data-name="Path 755" d="M661.755,494.294a16.068,16.068,0,0,1,.537,4.831q.03,4.978-.132,9.955a18.558,18.558,0,0,1-.647,5.04c-.34,1.068-.864,2.07-1.215,3.134-1.051,3.19-.477,6.65-.387,10.007a11.371,11.371,0,0,1-.275,3.237c-.555,2.081-2.046,3.763-3.086,5.649-.988,1.791-1.584,3.8-2.765,5.47s-3.223,2.995-5.2,2.482a5.745,5.745,0,0,1-3.3-3.08,15.108,15.108,0,0,1-1.562-9.8c.74-4.075,3.134-7.69,4-11.741,1.185-5.563-.616-11.3-.563-16.99a8.214,8.214,0,0,1,.358-2.634,11.023,11.023,0,0,1,2.324-3.378,42.664,42.664,0,0,0,3.123-4.1c.643-.959,1.517-3.426,2.657-3.631C658.158,488.288,661.123,492.328,661.755,494.294Z" transform="translate(-443.457 -339.588)" fill="#6c63ff"/>
        <path id="Path_756" data-name="Path 756" d="M434.7,670.547a15.493,15.493,0,0,0-4.309-.458,10.755,10.755,0,0,0-9.985,12.679,18.067,18.067,0,0,0,1.708,4.666,15.588,15.588,0,0,0,4.629,6.119,18.028,18.028,0,0,0,4.085,1.945l11.143,4.2c1.639.617,3.279,1.235,4.934,1.808a96.5,96.5,0,0,0,25.771,5.123,27.905,27.905,0,0,0,8-.405,2.6,2.6,0,0,0,1.639-.885,2.807,2.807,0,0,0,.366-1.209l.686-4.8a4.02,4.02,0,0,0-.058-2.023,3.876,3.876,0,0,0-1.852-1.745c-7.326-4.207-15.879-6.529-22.045-12.3-1.452-1.359-2.666-3.514-4.43-4.438-2-1.047-4.355-1.645-6.422-2.61C444.037,674.1,439.593,671.673,434.7,670.547Z" transform="translate(-299.431 -454.954)" fill="#d6d6dc"/>
        <path id="Path_757" data-name="Path 757" d="M486.922,688.658c3.939,1.234,20.567,9.784,23.417,12.769-.382.138-13.344-7.126-13.733-7.243a78.3,78.3,0,0,1-10.448-3.682c-.675-.312-4.388-1.781-4.22-2.633C482.128,686.907,486.222,688.439,486.922,688.658Z" transform="translate(-339.96 -466.594)" opacity="0.1"/>
        <path id="Path_758" data-name="Path 758" d="M611.8,766.658a.925.925,0,0,0,.624-.184.964.964,0,0,0,.2-.719q-.009-3.27-.018-6.539a20.1,20.1,0,0,0-6.049-1.459l-9.633-1.288c.221.03-1.506,4.149-1.241,4.7.467.969,4.035,1.828,5.042,2.286C604.224,765.046,607.861,766.795,611.8,766.658Z" transform="translate(-412.993 -512.496)" fill="#ffb8b8"/>
        <path id="Path_759" data-name="Path 759" d="M541.663,755.258c-1.819.29-3.849.546-5.027,1.962-1.494,1.8-.858,4.472-.145,6.7a2.171,2.171,0,0,0,2.533,1.812,8.756,8.756,0,0,0,4.873-.626,21.4,21.4,0,0,0,1.893-1.407,12.132,12.132,0,0,1,3.48-1.591,35.187,35.187,0,0,1,6.987-1.44,10.867,10.867,0,0,0,2.752-.485,3.05,3.05,0,0,0,1.938-1.882c.336-1.188-.355-2.4-1.017-3.442a13.734,13.734,0,0,0-2.93-3.621c-1.8-1.394-2.683-.324-4.491.568A38.1,38.1,0,0,1,541.663,755.258Z" transform="translate(-374.392 -508.561)" fill="#ffb8b8"/>
        <path id="Path_760" data-name="Path 760" d="M495.39,761.064l-11.549-3.413a15.288,15.288,0,0,0-4.3-.833,5.16,5.16,0,0,0-3.947,1.6,7.688,7.688,0,0,0-1.375,3.85l-.478,2.915a14.64,14.64,0,0,0-.267,4.476,4.949,4.949,0,0,0,2.294,3.688c1.6.872,3.557.446,5.341.081a58.147,58.147,0,0,1,10.944-1.174,8.783,8.783,0,0,0,4.054-.647,5.061,5.061,0,0,0,2.47-4.033C498.806,765.081,497.977,761.828,495.39,761.064Z" transform="translate(-334.623 -512.728)" fill="#2f2e41"/>
        <path id="Path_761" data-name="Path 761" d="M647.848,756.005a28.043,28.043,0,0,0,4.253-1.616,18.917,18.917,0,0,1,6.347-.7,4.074,4.074,0,0,1,2.276.456c.942.627,1.184,1.883,1.344,3l.967,6.762a10.612,10.612,0,0,1,.079,3.831,3.6,3.6,0,0,1-2.381,2.784c-1.51.392-2.991-.572-4.417-1.206-3.564-1.584-7.707-1.179-11.423-2.363a2.56,2.56,0,0,1-1.71-1.222,2.782,2.782,0,0,1-.133-1.169c.064-2.173-.395-5.141.26-7.219C643.9,755.481,646.177,756.005,647.848,756.005Z" transform="translate(-443.05 -510.644)" fill="#2f2e41"/>
        <path id="Path_762" data-name="Path 762" d="M634.782,662.128a20.055,20.055,0,0,1,7.065-.483,8.866,8.866,0,0,1,5.214,2.041c1.678,1.591,2.218,4.052,2.263,6.364a19.882,19.882,0,0,1-4.322,12.7,11.518,11.518,0,0,1-2.471,2.379,16.264,16.264,0,0,1-3.215,1.549l-24.953,9.842a161.218,161.218,0,0,1-20,6.893,1.559,1.559,0,0,1-2.1-.76,51.709,51.709,0,0,1-5.469-10,.674.674,0,0,1,.3-1.063l17.65-10.141a17.85,17.85,0,0,0,3.592-2.475,8.921,8.921,0,0,0,1.844-2.568c.366-.764.4-2.567.867-3.132s2.023-.6,2.746-.815a24.912,24.912,0,0,0,2.989-1.13c3.948-1.766,7.464-4.333,11.249-6.4A28.859,28.859,0,0,1,634.782,662.128Z" transform="translate(-405.008 -449.256)" fill="#d6d6dc"/>
        <path id="Path_763" data-name="Path 763" d="M644.33,682.153c-3.032,2.278-6.959,4.371-9.964,6.709-1.026.8-18.124,10.411-18.366,11.687,2.8.473,20.664-12.022,23.22-13.269a41.26,41.26,0,0,0,7.065-4.75c.572-.445,3-1.782,1.354-2.279C646.714,679.971,645.013,681.7,644.33,682.153Z" transform="translate(-425.281 -461.708)" opacity="0.1"/>
        <path id="Path_764" data-name="Path 764" d="M489.214,272.433l-13.5-7.072-18.643,2.893-3.858,17.037,9.6-.369,2.682-6.259v6.156l4.431-.171,2.572-9.964,1.607,10.607,15.751-.322Z" transform="translate(-288.695 -169.255)" fill="#2f2e41"/>
        <rect id="Rectangle_1417" data-name="Rectangle 1417" width="29.051" height="35.062" transform="translate(168.467 142.476)" fill="#3f3d56"/>
        <path id="Path_765" data-name="Path 765" d="M508.356,570.063a7.017,7.017,0,0,0,2.52,2.507,4.928,4.928,0,0,0,4.332-.116,7.625,7.625,0,0,0,3.126-3.134,15.6,15.6,0,0,0,1.588-8.663c-.183-2.972-.818-5.9-1.1-8.862-.2-2.155-.221-4.323-.237-6.487a2.157,2.157,0,0,1,.273-1.312,2.576,2.576,0,0,1,1.447-.723c2.961-.88,4.927-3.655,6.336-6.4a11.1,11.1,0,0,0,1.578-5.9c-.181-2.055-1.658-4.125-3.71-4.334-1.692-.173-3.254.9-4.474,2.086a19.186,19.186,0,0,0-5.618,11.227,43.488,43.488,0,0,1-.759,6.263c-1.213,4.331-5.01,6.986-6.9,10.883C504.672,561.389,505.823,566.263,508.356,570.063Z" transform="translate(-355.32 -364.248)" fill="#ffb8b8"/>
        <path id="Path_766" data-name="Path 766" d="M645.758,527.758a8.184,8.184,0,0,1-4.59,4.41,6.339,6.339,0,0,1-3.99.244,4.425,4.425,0,0,1-2.923-2.614,7.045,7.045,0,0,1-.329-1.964,20.234,20.234,0,0,1,.944-8.657c.409-1.052.961-2.05,1.284-3.131a15.7,15.7,0,0,0,.483-3.821l.349-7.968a5.187,5.187,0,0,0-.118-1.728,5.46,5.46,0,0,0-2.414-2.59c-2.388-1.661-4.747-3.6-5.9-6.267a4.4,4.4,0,0,1-.408-2.6c.326-1.582,1.923-2.607,3.5-2.952a7.832,7.832,0,0,1,9.389,6.311c.156.9.154,1.818.245,2.726.194,1.926.805,3.783,1.188,5.681.942,4.675.454,9.507,1.386,14.181C644.63,520.932,647.568,523.482,645.758,527.758Z" transform="translate(-433.657 -339.837)" fill="#ffb8b8"/>
      </g>
    </g>
    <path id="Path_647" data-name="Path 647" d="M435.876,122.979v-9.806a2.129,2.129,0,1,0-2.437-3.2l-6.145-2.039c.006-.066.016-.13.016-.2a2.129,2.129,0,0,0-4.258,0c0,.069,0,.137.01.2l-6.053,2.027a2.129,2.129,0,1,0-2.221,3.259v9.691a2.129,2.129,0,1,0,2.414,2.9l6.127,2.851a2.132,2.132,0,1,0,3.7.007l6.214-2.865a2.129,2.129,0,1,0,2.631-2.83Zm-19.977,0v-9.806a2.138,2.138,0,0,0,.961-.656l6.24,2.9a2.128,2.128,0,0,0,1.633,2.529v2.576l-8.24,2.759A2.146,2.146,0,0,0,415.9,122.979Zm1.31,1.236,7.524-2.519v5.943a2.108,2.108,0,0,0-.549.2l-6.846-3.185A2.073,2.073,0,0,0,417.209,124.214Zm8.634,3.482v-5.932l7.393,2.453a2.1,2.1,0,0,0-.12.429l-6.934,3.2A2.1,2.1,0,0,0,425.843,127.7Zm0-7.1v-2.7a2.125,2.125,0,0,0,1.421-2.464l6.317-2.913a2.128,2.128,0,0,0,1.185.717v9.69a2.128,2.128,0,0,0-.812.366Zm7.248-9.565c0,.04-.006.079-.006.12a2.094,2.094,0,0,0,.03.356l-6.36,2.933a2.123,2.123,0,0,0-.913-.594v-4.082a2.137,2.137,0,0,0,1.066-.784Zm-9.636-2.047a2.135,2.135,0,0,0,1.278.837v3.967a2.126,2.126,0,0,0-1.122.646l-6.276-2.92a2.175,2.175,0,0,0,.032-.363c0-.043,0-.084-.007-.126Z" transform="translate(986 345.609)" fill="#069" stroke="rgba(0,0,0,0)" stroke-width="1"/>
    <g id="Group_261" data-name="Group 261" transform="translate(1444.811 484.473) rotate(-45)">
      <g id="Group_244" data-name="Group 244">
        <path id="Path_499" data-name="Path 499" d="M703.015,130.691c-.024-.748,1.969.476,2.137.826a3.638,3.638,0,0,0,.658.986c.9.862,1.8.888,2.889,1.341q.037-.3.074-.59c-2.834.551-5.688-.041-8.54-.081a.308.308,0,0,0-.075.61,3.656,3.656,0,0,1,2.364,1.06c.57.6,1.059,1.267,1.643,1.852.656.658,1.609.491,2.447.483.4,0,.31-.613-.082-.609a2.722,2.722,0,0,1-2.592-1.036c-.4-.482-.817-.948-1.248-1.4a3.65,3.65,0,0,0-2.457-.96l-.075.61c2.905.04,5.809.642,8.7.08a.31.31,0,0,0,.074-.59c-1.512-.628-2.572-.662-3.4-2.39-.18-.376-.433-.839-.872-.951-.691-.176-2.283-.167-2.251.84.013.4.622.31.609-.082Z" transform="translate(-699.896 -129.846)" fill="#05aff2" stroke="rgba(0,0,0,0)" stroke-width="1"/>
      </g>
      <g id="Group_245" data-name="Group 245" transform="translate(10.542 7.504)">
        <path id="Path_500" data-name="Path 500" d="M717.412,142.791a16.077,16.077,0,0,1,2.851,2.024c.311.245.684-.244.373-.489a16.826,16.826,0,0,0-2.994-2.105c-.356-.173-.585.4-.229.57Z" transform="translate(-717.234 -142.188)" fill="#05aff2" stroke="rgba(0,0,0,0)" stroke-width="1"/>
      </g>
      <g id="Group_246" data-name="Group 246" transform="translate(9.799 8.115)">
        <path id="Path_501" data-name="Path 501" d="M716.137,143.739c1.037.728,2.047,1.479,3.014,2.3.3.257.674-.233.373-.489-.966-.82-1.977-1.571-3.013-2.3-.324-.227-.7.261-.373.489Z" transform="translate(-716.012 -143.192)" fill="#05aff2" stroke="rgba(0,0,0,0)" stroke-width="1"/>
      </g>
      <g id="Group_247" data-name="Group 247" transform="translate(21.574 8.056)">
        <path id="Path_502" data-name="Path 502" d="M737.3,143.984c1.04-1.2,2.409.806,2.122,1.758-.212.7-2.575,2.824-3.144,1.651.173.356.742.123.568-.234-.24-.494-.658-1.1-1.278-.93a.3.3,0,0,0-.188.246c-.044,2.646,3.728,1.408,4.451-.156a2.047,2.047,0,0,0-.62-2.82,1.792,1.792,0,0,0-2.4.112c-.26.3.23.671.489.373Z" transform="translate(-735.377 -143.095)" fill="#05aff2" stroke="rgba(0,0,0,0)" stroke-width="1"/>
      </g>
      <g id="Group_248" data-name="Group 248" transform="translate(25.213 10.111)">
        <path id="Path_503" data-name="Path 503" d="M744.112,147.449c.373.193,1.833.494,1.714-.391-.111-.822-1.483-.555-2-.488-3.329.424-2.767,3.594-1.305,5.65.23.324.718-.05.489-.372-.816-1.148-1.805-2.905-.515-4.116a2.989,2.989,0,0,1,1.692-.588c.807-.1,1.04.19.159-.265-.352-.182-.579.389-.229.57Z" transform="translate(-741.362 -146.476)" fill="#05aff2" stroke="rgba(0,0,0,0)" stroke-width="1"/>
      </g>
      <g id="Group_249" data-name="Group 249" transform="translate(30.786 10.017)">
        <path id="Path_504" data-name="Path 504" d="M752.168,147.077a2.55,2.55,0,0,1-1.37.376c-.239.039-.391.4-.146.549a8.94,8.94,0,0,0,2.254,1.056c.378.1.613-.469.23-.57a8.282,8.282,0,0,1-2.111-.974l-.145.549c.564-.092,2.328-.058,2.319-1-.008-.823-.837-.933-1.4-.476-.308.249.064.739.372.489Z" transform="translate(-750.527 -146.32)" fill="#05aff2" stroke="rgba(0,0,0,0)" stroke-width="1"/>
      </g>
      <g id="Group_250" data-name="Group 250" transform="translate(19.001 12.086)">
        <path id="Path_505" data-name="Path 505" d="M731.265,150.277l7.393,5.637a.308.308,0,0,0,.373-.489l-7.393-5.637a.308.308,0,0,0-.373.489Z" transform="translate(-731.146 -149.724)" fill="#05aff2" stroke="rgba(0,0,0,0)" stroke-width="1"/>
      </g>
      <g id="Group_251" data-name="Group 251" transform="translate(34.98 24.271)">
        <path id="Path_506" data-name="Path 506" d="M757.544,170.315l7.393,5.637a.307.307,0,0,0,.372-.489l-7.392-5.637a.308.308,0,0,0-.373.489Z" transform="translate(-757.425 -169.762)" fill="#05aff2" stroke="rgba(0,0,0,0)" stroke-width="1"/>
      </g>
      <g id="Group_252" data-name="Group 252" transform="translate(16.793 15.643)">
        <path id="Path_507" data-name="Path 507" d="M733.342,158.6c-.479-2.255-3.926-4.492-5.457-1.78a2.213,2.213,0,0,0,1.011,3.3c1.765.853,3.471-.882,4.4-2.137a.308.308,0,0,0-.489-.373c-.794,1.041-2.55,5.2.38,4.614.387-.077.308-.686-.082-.609-2.309.461-.03-3.342.191-3.632l-.489-.373a4.444,4.444,0,0,1-2.712,2.044c-1.828.381-2.369-1.616-1.475-2.807,1.392-1.853,3.793.323,4.114,1.833.082.386.692.306.609-.082Z" transform="translate(-727.513 -155.573)" fill="#05aff2" stroke="rgba(0,0,0,0)" stroke-width="1"/>
      </g>
      <g id="Group_253" data-name="Group 253" transform="translate(24.294 19.247)">
        <path id="Path_508" data-name="Path 508" d="M740.655,162.284c.6-.345.905.089.282.21-.3.059-.6.1-.9.188a.309.309,0,0,0-.069.528c.536.35,1.115.621,1.641.988.324.226.7-.262.373-.489-.528-.368-1.1-.635-1.641-.988q-.035.264-.07.528c.289-.083,2.645-.279,2.163-1.171-.413-.765-1.472-.676-2.153-.284-.343.2.034.684.372.489Z" transform="translate(-739.85 -161.5)" fill="#05aff2" stroke="rgba(0,0,0,0)" stroke-width="1"/>
      </g>
      <g id="Group_256" data-name="Group 256" transform="translate(29.912 20.124)">
        <g id="Group_254" data-name="Group 254" transform="translate(0.227)">
          <path id="Path_509" data-name="Path 509" d="M751.5,163.062l-1.977,2.593a.308.308,0,0,0,.489.373l1.977-2.593a.308.308,0,0,0-.489-.373Z" transform="translate(-749.463 -162.943)" fill="#05aff2" stroke="rgba(0,0,0,0)" stroke-width="1"/>
        </g>
        <g id="Group_255" data-name="Group 255" transform="translate(0 0.372)">
          <path id="Path_510" data-name="Path 510" d="M749.2,164.05l2.5,1.907a.275.275,0,0,0,.333-.437l-2.5-1.907a.275.275,0,0,0-.333.437Z" transform="translate(-749.09 -163.555)" fill="#05aff2" stroke="rgba(0,0,0,0)" stroke-width="1"/>
        </g>
      </g>
      <g id="Group_257" data-name="Group 257" transform="translate(37.284 19.853)">
        <path id="Path_511" data-name="Path 511" d="M765.505,163.107c.448-.01-.764,1.279-.921,1.456a1.38,1.38,0,0,0-.353.829,1.906,1.906,0,0,0,1.238,1.737c1.421.615,3.161-1.093,3.7-2.224.153-.316-.326-.576-.529-.3a18.937,18.937,0,0,1-2.179,2.769,2.823,2.823,0,0,1-4.661-.721l-.322.422.893.485c.281.278.65-.213.373-.489a1.854,1.854,0,0,0-1.19-.606.31.31,0,0,0-.322.422,3.2,3.2,0,0,0,3.359,2.01c2.171-.109,3.413-2.4,4.537-3.919l-.53-.3a3.916,3.916,0,0,1-1.8,1.738,1.329,1.329,0,0,1-1.667-.247c-.835-.859.275-1.541.706-2,.717-.771.819-1.692-.415-1.665-.4.009-.31.618.082.609Z" transform="translate(-761.214 -162.497)" fill="#05aff2" stroke="rgba(0,0,0,0)" stroke-width="1"/>
      </g>
      <g id="Group_258" data-name="Group 258" transform="translate(46.212 22.026)">
        <path id="Path_512" data-name="Path 512" d="M776.728,166.511l.373.776a6.491,6.491,0,0,1-.939.229c-.272.052-.395.5-.074.59a4.074,4.074,0,0,1,1.647.877c.3.257.674-.234.373-.489a4.252,4.252,0,0,0-1.79-.959q-.037.295-.074.59c.634-.121,2.03-.342,1.9-1.3-.136-1.011-1.2-.879-1.781-.358a.32.32,0,0,0-.1.362c.01.03.019.061.03.092a.3.3,0,0,0,.247.189l.111.01c.394.036.471-.574.075-.61Z" transform="translate(-775.897 -166.071)" fill="#05aff2" stroke="rgba(0,0,0,0)" stroke-width="1"/>
      </g>
      <g id="Group_259" data-name="Group 259" transform="translate(31.721 26.51)">
        <path id="Path_513" data-name="Path 513" d="M755.168,174c1.766.335.42,1.184-.435,1.662a14,14,0,0,0-2.217,1.247c-1.257,1.031.413,2.094,1.3,2.527,1.089.535,3.489.539,3.735-1.081a1.964,1.964,0,0,0-2.139-2.438.282.282,0,0,0-.184.443,1.989,1.989,0,0,0,.838.785c.3.182.644-.258.337-.441a1.528,1.528,0,0,1-.733-.68l-.184.443a1.343,1.343,0,0,1,1.547,1.254c.353,1.629-1.87,1.595-2.653,1.344-.73-.234-2.328-1.057-1.294-1.906a17.8,17.8,0,0,1,2.447-1.323c1.72-1,1.746-2-.295-2.39-.351-.066-.418.485-.067.551Z" transform="translate(-752.065 -173.445)" fill="#05aff2" stroke="rgba(0,0,0,0)" stroke-width="1"/>
      </g>
      <g id="Group_260" data-name="Group 260" transform="translate(38.84 31.075)">
        <path id="Path_514" data-name="Path 514" d="M764.312,181.571l.3.231a2.984,2.984,0,0,0-.607.114.281.281,0,0,0-.131.5,6.116,6.116,0,0,0,1.671,1.042c.318.164.524-.353.207-.515a5.766,5.766,0,0,1-1.541-.969l-.131.5c.39-.1,1.683-.1,1.584-.831-.1-.756-1.009-.774-1.564-.578-.339.12-.125.632.212.513Z" transform="translate(-763.773 -180.952)" fill="#05aff2" stroke="rgba(0,0,0,0)" stroke-width="1"/>
      </g>
    </g>
  </g>
</svg>
