<?xml version="1.0" encoding="UTF-8"?>
<!DOCTYPE svg PUBLIC "-//W3C//DTD SVG 1.1//EN" "http://www.w3.org/Graphics/SVG/1.1/DTD/svg11.dtd">
<!-- Creator: CorelDRAW 2017 -->
<svg xmlns="http://www.w3.org/2000/svg" xml:space="preserve" width="1600px" height="1600px" version="1.1" style="shape-rendering:geometricPrecision; text-rendering:geometricPrecision; image-rendering:optimizeQuality; fill-rule:evenodd; clip-rule:evenodd"
viewBox="0 0 1600 1600"
 xmlns:xlink="http://www.w3.org/1999/xlink">
 <defs>
  <style type="text/css">
   <![CDATA[
    .fil10 {fill:black}
    .fil13 {fill:#013253}
    .fil11 {fill:#2372B4}
    .fil0 {fill:#2A2424}
    .fil5 {fill:#3A393A}
    .fil3 {fill:#52ABDC}
    .fil4 {fill:#774F1E}
    .fil9 {fill:#88878C}
    .fil1 {fill:#C4C5C9}
    .fil7 {fill:#EDEEF0}
    .fil12 {fill:#F0C694}
    .fil8 {fill:#F0C694}
    .fil6 {fill:#FAD5A9}
    .fil2 {fill:white}
   ]]>
  </style>
 </defs>
 <g id="Layer_x0020_1">
  <metadata id="CorelCorpID_0Corel-Layer"/>
  <g id="HD_x0020_Virtual_x0020_Video_x0020_Classroom-virtual-classroom">
   <g id="myCampusSquare-virtual-classroom">
    <path class="fil0" d="M449.87 964.3l925.49 0c81.5,0 152.87,-75.81 152.87,-175.55l0 -599.64c0,-126.84 -59.57,-189.11 -192.98,-189.11 -290.73,0 -581.46,0 -872.19,0 -62.81,0 -114.06,10.83 -155.14,62.97 -43.48,55.18 -37.16,100.08 -37.16,180.65l0 545.13c0,105.55 72.23,175.55 179.11,175.55z"/>
    <path class="fil0" d="M311.83 1151.78l1159.7 0c60,0 106.22,-23.07 107.32,-92.04 1.09,-67.57 -44.6,-95.39 -104.9,-95.41l-1153.08 -0.4c-57.23,-0.02 -107.23,30.48 -106.41,93.99 0.73,56.37 42.46,93.86 97.37,93.86z"/>
    <path class="fil1" d="M1430.02 852.07l0.03 -738.54 -1061.33 -0.19 0 738.78c170.09,-0.21 892.49,-0.18 1061.3,-0.05z"/>
    <path class="fil2" d="M1374.33 802.54l0.01 -639.65 -949.72 0 -0.1 639.53c255.25,0.17 881.28,0.14 949.81,0.12z"/>
    <path class="fil3" d="M853.55 451.62c-3.62,15.56 -19.12,46.75 -28.5,60.01l23.3 -5c22.34,-19.86 66.47,-45.11 76.61,-74.88l181.91 0.76c40.41,0.17 80.97,-12.67 81,-60.1l0.1 -131.9c0.03,-41.59 -29.47,-63.49 -69.2,-63.38l-246.87 0.68c-42.75,0.12 -82.18,11.09 -81.98,63.02l0.49 125.89c0.06,15.75 2.89,33.53 14.79,43.83 11.67,10.1 31.63,20.71 48.35,41.07z"/>
    <path class="fil4" d="M599.21 490.77c-0.35,-8.01 -11.56,-36.15 -8.95,-56.39 1.69,-13.11 6.01,-11.54 17.09,-15.74 18.62,-7.05 42.82,-17.09 58.39,-30.38 11.86,-10.12 10.38,-8.17 20.03,-20.37 3.17,-3.99 9.82,-14.34 11.77,-19.72 4.29,1.3 10.09,8.32 13.13,11.85 21.72,25.23 17.08,65.69 6.11,95.07 -1.45,3.86 -11.74,28.92 -15.28,32.21l-0.17 0.76 -0.87 0.9c0.79,1.23 -0.18,2.04 7.51,-3.95 14.42,-11.26 34.41,-34.02 44.22,-49.87 13.44,-21.7 24.83,-48.67 27.92,-79.24 3.25,-32.23 -2.83,-66.17 -19.63,-87 -5.52,-6.83 -5.15,-7.95 -12.75,-13.65 -10.79,-8.09 -24.81,-15.22 -39.56,-12.69 -3.38,0.58 -7.03,1.91 -9.78,3.38 -3.92,2.1 -5.62,4.16 -8.49,5.88 -1.11,-0.79 -0.47,-0.23 -1.5,-1.36 -6.28,-6.86 0.26,-1.62 -10.56,-9.75 -33.16,-24.92 -93.23,-3.5 -118.53,24.45 -16.07,17.74 -26.35,37.11 -33.08,60.97 -7.27,25.77 -10.54,57.97 -3.26,84.48 2.69,-5.18 1.76,-12.14 8.01,-14.42 -0.59,10.2 -0.62,18.8 1.35,28.72 2.85,14.42 6.04,16.47 7.84,23.29l1.81 -3.61c1.35,-4.04 0.78,-6.38 6.71,-9.37 0.32,16.12 5.05,29.62 18.59,37.46l-3.2 -14.28c2.45,1.55 11.66,12.83 16.29,16.95l18.84 15.42z"/>
    <path class="fil5" d="M555.34 776.05c3.49,-13.69 3.67,-21.87 9.37,-35.13 4.01,-9.35 12.6,-22.68 19.03,-25.32 0.25,-10.83 1.29,-19.12 7.33,-24.79 5.89,-5.53 15.23,-6.77 25.83,-7 2.11,-2.33 2.98,-5.17 4.9,-8.01 1.96,-2.91 3.91,-4.84 5.7,-7.8l0.61 -16.33c-12.83,-8.1 -22.37,-24.02 -26.77,-38.99 -8.35,-28.44 -2.61,-40.06 -3.03,-59.73 -4.55,6.58 -15.11,12.74 -26.63,15.56 -10.64,2.6 -24.19,3.66 -33.38,7.96 -17.21,8.05 -27.85,26.23 -34.64,48.04 -13.56,43.57 -10.68,105.33 -5.6,151.25l57.28 0.29z"/>
    <path class="fil6" d="M599.21 490.77l7.16 6.07c21.44,18.18 50.37,23.47 75.04,7.28 8.68,-5.71 16.67,-13.41 19.05,-15.16 3.89,-2.87 14.87,-30.01 16.32,-33.87 10.97,-29.38 15.61,-69.84 -6.11,-95.07 -3.04,-3.53 -8.84,-10.55 -13.13,-11.85 -1.95,5.38 -8.6,15.73 -11.77,19.72 -9.65,12.2 -8.17,10.25 -20.03,20.37 -15.57,13.29 -39.77,23.33 -58.39,30.38 -11.08,4.2 -15.4,2.63 -17.09,15.74 -2.61,20.24 8.6,48.38 8.95,56.39z"/>
    <path class="fil1" d="M924.17 509.56c3.65,3.92 28.45,7.56 51.44,35.7 1.19,1.45 1.32,2.05 2.37,3.36 2.57,-1.32 9.36,-7.55 14.02,-10.19l-1.56 -0.2 0.07 -28.13c-19.52,-2.37 -46.01,0.84 -66.34,-0.54zm291.23 183.67l-0.71 -1.09 -0.83 -0.93 -1 -0.78 -0.82 -0.88 0.82 0.88 1 0.78 0.83 0.93 0.71 1.09c1.33,2.35 2.62,3.57 4.41,7.02 1.85,-1.84 -2.99,-1.61 3.78,-1.57l77.11 -0.13 -0.41 -191.37c-13.21,-0.69 -28.13,-0.07 -41.53,-0.07 -5.23,0 -38.82,-1.2 -40.82,0.73 -2.67,2.59 0.96,177.04 -1.16,183.24 -1,2.93 1.52,0.53 -1.38,2.15zm-99.79 -171.87c7.62,12.9 8.97,11.7 19.61,32.19 5.09,9.8 4.4,4.39 12.3,13.2 3.63,4.05 6.71,10.64 9.31,16.18 9.75,20.83 21.23,57.2 19.25,83.18 0.92,1.92 1.59,2.34 3.39,4.07 2.63,2.53 1.79,1.8 3.58,4.37 2.17,3.13 3.9,7 5.6,9.06l15.1 1.36 0 -177.97c-17.07,0.24 -34.29,0.07 -51.38,0.05 -7.83,-0.01 -15.99,0.06 -22.75,3.05 -6.28,2.78 -11.54,5.74 -12.4,12.61l-1.61 -1.35zm-112.61 11.7c24.25,-11.22 55.37,-1.22 77.5,11.92 3.56,2.11 26.47,22.02 30.06,24.09 5.68,0.68 10.3,-11.19 2.69,-24.33 -6.73,-11.63 -25.21,-24.3 -29.44,-29.46 -11.75,-7.13 -22.61,-5.47 -37.83,-5.47 -14.17,0 -28.35,-0.01 -42.53,0l-0.45 23.25z"/>
    <path class="fil7" d="M893.87 504.18c5.04,0.59 10.11,1.14 15.1,2.09 5.1,0.97 10.27,3.12 15.2,3.29 20.33,1.38 46.82,-1.83 66.34,0.54l-0.07 28.13 1.56 0.2 11 -5.37 0.45 -23.25c14.18,-0.01 28.36,0 42.53,0 15.22,0 26.08,-1.66 37.83,5.47l-16.85 -19.45c-30.89,-6.48 -134.83,-0.75 -173.09,-0.75l0 9.1z"/>
    <path class="fil8" d="M604.65 529.37c-0.62,6.69 -0.15,20.9 -6.34,23.58 0.42,19.67 -5.32,31.29 3.03,59.73 4.4,14.97 13.94,30.89 26.77,38.99 3.72,-25.77 39.4,7.81 49.51,-14.29 5.72,-12.54 56.44,-47.89 18.33,-76.49 -5.65,-4.23 -13.35,-3.04 -13.75,-20.94l-0.79 -35.83c-35.36,20.56 -55.75,2.93 -76.21,-8.27 0.3,6.16 0.3,24.48 -0.55,33.52z"/>
    <path class="fil0" d="M1314.73 741.01l-74.65 -0.37c2.16,6.15 4.91,13.1 6.88,19.67l78.09 -0.19 -0.18 -213.17 -11.49 0 1.35 194.06z"/>
    <path class="fil9" d="M997.89 1068.97c10.7,-3.38 35.02,-24.86 42.75,-33.24 10.77,-11.67 6.76,-5.75 17.8,-20.89 4.86,-6.66 11.35,-15.45 14.77,-23.81l-29.92 -0.11c-25.68,23.49 -18.14,9.25 -23.77,37.74 -1.87,9.47 -3.99,14.94 -8.47,22.33 -2.67,4.41 -10.66,16.54 -13.16,17.98z"/>
    <path class="fil1" d="M1228.06 720.99l0.7 1.05 0.68 1.09 0.73 0.62c3.09,3.51 2.94,4.4 5.5,8.02 2.56,3.64 2.96,4.81 4.41,8.87l74.65 0.37 -0.39 -21.41 -87.51 -0.2 0.39 0.65 0.84 0.94z"/>
    <path class="fil5" d="M687.23 600.9l-5.43 20.05 27.85 -39.31c2.84,-3.81 9.05,-7.85 10.38,-11.76 -10.33,-1.88 -16.28,-4.65 -24.08,-8.99 -1.85,1.07 -0.13,-0.36 -1.49,1.2 -4.65,5.37 1.12,7.42 0.27,18.88 -0.61,8.21 -5.03,13.36 -7.5,19.93z"/>
    <path class="fil9" d="M756.76 1034.13c-0.85,-4.31 -13.8,-40.78 -15.49,-43.17l-8.2 0.26 -2.28 -0.31 -5.16 0c1.64,5.28 14.66,24.67 18.08,28.89l13.05 14.33z"/>
    <path class="fil2" d="M874.64 299.7c-13.48,5.92 -5.66,24.88 7.94,20.51 14.02,-4.5 5.83,-26.56 -7.94,-20.51zm45.53 -0.14c-13.33,4.96 -6.17,25.73 8.08,20.67 12.36,-4.39 7.22,-26.36 -8.08,-20.67zm45.55 -0.08c-13.25,4.66 -6.53,26.5 8.16,20.61 12.3,-4.92 6.61,-25.8 -8.16,-20.61zm45.23 0.22c-13.46,6 -5.56,24.78 7.93,20.53 14.24,-4.48 5.64,-26.58 -7.93,-20.53zm45.55 -0.1c-13.38,5.11 -6.12,25.56 8.04,20.65 12.43,-4.32 7.25,-26.5 -8.04,-20.65zm45.54 -0.11c-13.78,5.79 -5.84,26.16 8.14,20.63 13.08,-5.17 5.63,-26.42 -8.14,-20.63z"/>
    <path class="fil5" d="M733.07 991.22l8.2 -0.26 -9.62 -22.4c-1.35,-2.28 -3.16,-5.89 -5.43,-7.42 0.65,5.4 1.57,10.89 2.85,16.18 1.19,4.94 3.04,9.3 4,13.9z"/>
   </g>
   <g id="Student-management-system">
    <path class="fil10" d="M655.85 927.23c0.22,35.37 -0.5,105.65 -3.56,141.39 -4.4,51.56 -21.14,90.8 -52.56,130.24 -27.18,34.12 -56.22,56.83 -94.01,78 -46.76,26.17 -95.87,41.15 -154.87,51.14 -74.63,12.64 -171.24,-16.93 -236.59,-59.78 -36.76,-24.11 -82.37,-64.49 -75.65,-112.87 4.88,-35.16 36.29,-63.15 68.51,-80.7 40.18,-21.87 76.3,-11.11 114.98,-13.73l0.06 -16.39c-52.36,-1.58 -94.92,-6.51 -140.01,26.25 -34.69,25.2 -66.47,57.38 -60.24,104.69 5.11,38.84 35.39,74.16 76.96,102.57 72.14,49.3 178.29,77.77 245.89,67.66 59.8,-8.94 124.18,-27.77 177.81,-59.09 38.87,-22.7 78.03,-57 102.67,-94.79 49.58,-76.03 51.39,-168.96 47,-264.52l-16.39 -0.07z"/>
    <g id="myCampusSquare-student-management-system">
     <path class="fil11" d="M712.71 1600l364.93 0c40.67,0 103.39,-29.46 105.78,-123.79 1.51,-59.41 -0.36,-139.68 -25.68,-200.41 -17.9,-42.94 -47.52,-76.12 -95.94,-85.25 -25.6,-4.83 -82.48,-21.87 -89.3,-39.08 -5.78,9.67 -77.41,14.39 -88.3,14.06 -12.63,-0.38 -80.32,-8.72 -86.25,-14.33 -9.82,28.26 -87.12,35.46 -114.7,45 -37.3,12.89 -59.45,47.79 -72.58,83.07 -22.17,59.56 -25.62,130.8 -24.99,197.86 0.87,92.81 81.15,122.87 127.03,122.87z"/>
     <path class="fil4" d="M848.35 506.63l-23.3 5c-22.15,7.43 -39.33,12.57 -58.19,23.48 -11.6,6.71 -25.94,16.31 -35.38,25.31 -3.69,3.52 -6.84,7.16 -11.45,9.46 -1.33,3.91 -7.54,7.95 -10.38,11.76l-27.85 39.31 -5.84 10.62c-1.91,6.59 -3.69,14.32 -3.99,21.71 4.43,2.47 10.84,3.31 15.58,5.93 13.78,7.63 22.75,19.02 25.81,34.89 2.14,11.14 0.89,146.79 0.89,161.47 0,12.38 1.29,26.25 -2.62,37.57 -5.35,15.47 -11.76,17.93 -16.39,24.12 0.61,18.58 3.26,30.83 10.57,46.12 1.82,2.53 3.14,5.18 5.24,8.18 9.77,13.99 8.86,9.81 18.25,17.9 0.96,0.82 0.81,0.68 1.49,1.45l2.28 0.31c-0.96,-4.6 -2.81,-8.96 -4,-13.9 -1.28,-5.29 -2.2,-10.78 -2.85,-16.18 2.27,1.53 4.08,5.14 5.43,7.42l9.62 22.4c1.69,2.39 14.64,38.86 15.49,43.17 5.97,14.22 10.32,27.33 17.61,41.17 14.08,26.72 20.33,20.01 33.02,25.44 11.4,1.19 24.67,4.95 36.99,6.57 32.65,4.28 68.29,4.71 99.95,-5.32 5.34,-1.69 11.48,-4.45 16.55,-5.67 4.24,-3.59 15.07,-7.9 19.77,-11.53l8.83 -6.99c3.37,-3.51 5.48,-5.25 8.41,-8.83 2.5,-1.44 10.49,-13.57 13.16,-17.98 4.48,-7.39 6.6,-12.86 8.47,-22.33 5.63,-28.49 -1.91,-14.25 23.77,-37.74 1.18,-2.17 10.05,-10.89 12.65,-13.76 1.95,-2.16 4.63,-4.47 6.69,-6.52 1.53,-1.53 1.69,-1.44 3,-3.04 0.78,-0.95 0.78,-1.08 1.5,-2.03l1.69 -2.12c3.71,-5.32 11.68,-13.67 19.27,-24.48 1.66,-2.37 2.48,-3.24 4.59,-5.94l13.02 -19.96c-1.65,-2.98 -2.46,-3.3 -4.71,-6.12 -1.8,-2.25 -2.19,-3.48 -3.58,-6.08 -2.4,-4.51 -4.03,-8.67 -5.12,-14.16 -2.14,-10.75 -0.99,-101.38 -0.99,-116.43 0,-18.1 -2.13,-62.4 1.25,-77.41 4.73,-21.02 18.86,-33.28 39.63,-38.78 -2.89,-17.03 -4.5,-28.26 -10.79,-43.62 -5.49,-13.38 -15.54,-24.43 -10.83,-41.4l-0.8 -0.65 -0.83 -0.88 -0.89 -0.91 -0.83 -0.89 -0.88 -0.89 -0.89 -0.84 -0.91 -0.87 -0.88 -0.88c-3.16,-2.34 -4.27,-3.27 -7.21,-5.97 -1.92,-1.76 -5.09,-3.96 -6.56,-5.26 -3.58,-2.08 -5.82,-3.94 -9.38,-6.05 -22.13,-13.14 -53.25,-23.14 -77.5,-11.92l-11 5.37c-4.66,2.64 -11.45,8.87 -14.02,10.19 -1.05,-1.31 -1.18,-1.91 -2.37,-3.36 -22.99,-28.14 -47.79,-31.78 -51.44,-35.7 -4.93,-0.17 -10.1,-2.32 -15.2,-3.29 -4.99,-0.95 -10.06,-1.5 -15.1,-2.09 -15.69,-0.54 -30.26,-0.65 -45.52,2.45z"/>
     <path class="fil12" d="M807.39 1100.74c1.55,12.21 -3.08,41.41 -9.44,50.46 5.93,5.61 73.62,13.95 86.25,14.33 14.16,0.43 53.14,-3.96 69.21,-6.92 5.1,-0.94 16.17,-2.27 19.09,-7.14 -5.4,-8.84 -7.3,-11.64 -9.2,-24.2 -1.24,-8.21 -3.12,-22.98 -2.42,-30.95 -5.07,1.22 -11.21,3.98 -16.55,5.67 -31.66,10.03 -67.3,9.6 -99.95,5.32 -12.32,-1.62 -25.59,-5.38 -36.99,-6.57z"/>
     <path class="fil4" d="M672.24 927.3c1,3.2 5.48,13.24 8.36,15.43 1.75,-10.67 1.99,-11.22 5.67,-20.31 -3.67,1.59 -11.65,3.55 -14.03,4.88z"/>
    </g>
    <g id="myCampusSquare-Headphone">
     <path class="fil13" d="M1132.18 654.09c-20.77,5.5 -34.9,17.76 -39.63,38.78 -3.38,15.01 -1.25,59.31 -1.25,77.41 0,15.05 -1.15,105.68 0.99,116.43 1.09,5.49 2.72,9.65 5.12,14.16 1.39,2.6 1.78,3.83 3.58,6.08 2.25,2.82 3.06,3.14 4.71,6.12 23.94,21.43 58.28,19.29 77.09,-6.02 2.46,-3.31 3.69,-6.26 5.98,-9.69 5.46,-24.71 3.75,-24.64 3.75,-51.47l0 -110.78c0,-19.98 1.49,-32.76 -3.87,-51.5 -1.7,-2.06 -3.43,-5.93 -5.6,-9.06 -1.79,-2.57 -0.95,-1.84 -3.58,-4.37 -1.8,-1.73 -2.47,-2.15 -3.39,-4.07 -3.22,-1.32 -5.51,-4.1 -9.1,-6.26 -3.07,-1.84 -6.17,-3.2 -9.77,-4.27 -9.2,-2.73 -15.45,-2.81 -25.03,-1.49z"/>
     <path class="fil13" d="M627.5 668c-1.79,2.96 -3.74,4.89 -5.7,7.8 -1.92,2.84 -2.79,5.68 -4.9,8.01 -5.2,18.75 -3.84,31.42 -3.84,51.3l-0.01 137.16c-0.02,12.06 1.37,14.36 3.79,24.62 5.45,11.11 10.4,17.33 19.97,23.21 12.4,7.62 19.51,7.59 35.43,7.2 2.38,-1.33 10.36,-3.29 14.03,-4.88 3.39,-1.62 6.01,-4.02 8.97,-5.16 4.63,-6.19 11.04,-8.65 16.39,-24.12 3.91,-11.32 2.62,-25.19 2.62,-37.57 0,-14.68 1.25,-150.33 -0.89,-161.47 -3.06,-15.87 -12.03,-27.26 -25.81,-34.89 -4.74,-2.62 -11.15,-3.46 -15.58,-5.93 -4.03,0.72 -9.63,-0.27 -14.44,0.29 -4.02,0.47 -8.39,1.65 -11.9,3 -8.15,3.12 -13.38,7.41 -18.13,11.43z"/>
     <path class="fil13" d="M808.7 415.89c-10.59,4.62 -17.58,7.54 -9.76,19.39 4.16,6.31 9.26,14.19 12.45,19.84 5.28,9.32 10.97,5.11 19.21,2.18 21.14,-7.5 52.3,-9.5 74.49,-9.72 22.19,-0.23 57.89,2.19 78.6,11.33 8.89,3.92 10.82,4.12 15.83,-4.12 4.62,-7.58 9.48,-15.3 13.97,-22.87 5.78,-9.77 -4.43,-13.32 -13.3,-16.77 -24.17,-9.4 -55.14,-12.95 -80.79,-13.7 -33.56,-0.99 -82.06,1.96 -110.7,14.44z"/>
     <path class="fil3" d="M682.2 539.95c-8.14,17.27 -7.19,15.7 -13.88,17.96 -11.77,3.97 -17.12,15.62 -22.84,28.16 -10.11,22.1 -13.65,39.83 -17.37,65.6l-0.61 16.33c4.75,-4.02 9.98,-8.31 18.13,-11.43 3.51,-1.35 7.88,-2.53 11.9,-3 4.81,-0.56 10.41,0.43 14.44,-0.29 0.3,-7.39 2.08,-15.12 3.99,-21.71 0.67,-7.11 7.69,-25.99 11.27,-30.67 2.47,-6.57 6.89,-11.72 7.5,-19.93 0.85,-11.46 -4.92,-13.51 -0.27,-18.88 1.36,-1.56 -0.36,-0.13 1.49,-1.2 0.83,-9.97 26.56,-40.45 34.03,-49.47 15.38,-18.56 60.13,-51.55 80.74,-57.07 -1.5,-8.61 -6.02,-12.35 -11.78,-19.07 -1.96,2.32 -5.85,3.43 -9.05,5.03 -21.52,10.75 -45.2,26.75 -62.77,43.35 -14.89,14.09 -28.99,32.69 -39.77,48.46 -1.8,2.63 -3.31,5.8 -5.15,7.83z"/>
     <path class="fil3" d="M999.52 454.79c10.51,0.5 42.1,22.66 52.39,30.71 25.38,19.85 44.38,41.84 60.27,69.49 4.86,8.46 2.14,7.82 -1.62,14.08 -4.71,16.97 5.34,28.02 10.83,41.4 6.29,15.36 7.9,26.59 10.79,43.62 9.58,-1.32 15.83,-1.24 25.03,1.49 3.6,1.07 6.7,2.43 9.77,4.27 3.59,2.16 5.88,4.94 9.1,6.26 1.98,-25.98 -9.5,-62.35 -19.25,-83.18 -2.6,-5.54 -5.68,-12.13 -9.31,-16.18 -7.9,-8.81 -7.21,-3.4 -12.3,-13.2 -10.64,-20.49 -11.99,-19.29 -19.61,-32.19 -24.97,-31.8 -38.64,-46.47 -73.6,-68.91 -5.8,-3.73 -24.39,-14.8 -31.05,-16.27 -3.77,4.18 -8.45,13.89 -11.44,18.61z"/>
     <path class="fil3" d="M583.74 715.6l-0.06 149.77c0.31,10.74 1.88,19.22 7.62,24.61 6.24,5.88 14.42,7.04 25.54,6.91 -2.42,-10.26 -3.81,-12.56 -3.79,-24.62l0.01 -137.16c0,-19.88 -1.36,-32.55 3.84,-51.3 -10.6,0.23 -19.94,1.47 -25.83,7 -6.04,5.67 -7.08,13.96 -7.33,24.79z"/>
     <path class="fil3" d="M1188.77 897.36c5.21,-0.83 10.35,0 15.14,-1.6 2.97,-0.99 8.79,-4.68 10.06,-5.85 5.74,-5.29 7.73,-14.15 7.62,-24.57l-0.24 -149.55c-0.03,-25.06 -9.39,-32.89 -32.7,-32.18 5.36,18.74 3.87,31.52 3.87,51.5l0 110.78c0,26.82 1.71,26.76 -3.75,51.47z"/>
     <path class="fil13" d="M555.34 776.05l-0.19 3.91c-0.29,14.99 -0.36,27.29 3.37,41.8 1.54,6.01 2.98,10.75 5.36,16.52 2.33,5.62 4.9,9.11 7.12,13.62 2.83,4.21 8.8,11.39 12.68,13.47l0.06 -149.77c-6.43,2.64 -15.02,15.97 -19.03,25.32 -5.7,13.26 -5.88,21.44 -9.37,35.13z"/>
     <path class="fil13" d="M1221.35 715.79l0.24 149.55c23.36,-13.29 29.9,-59.11 28.68,-82.75 -0.94,-18.14 -9.67,-59.13 -28.92,-66.8z"/>
    </g>
   </g>
  </g>
 </g>
</svg>
